<svg width="31" height="35" fill="none" xmlns="http://www.w3.org/2000/svg"><path d="M26.3 20v-3.2H24v3.6a1.1 1.1 0 00.3.9l3 3.2v1.9H2.7v-2l3-3.1.3-.4.1-.5v-6c0-2.5 1-5 2.6-6.7 1.7-1.8 4-2.8 6.4-2.8 1.6 0 3.1.5 4.5 1.3V3.5c-1-.5-2.2-.9-3.4-1V.1H14v2.4c-2.8.4-5.4 1.8-7.2 4-1.9 2.1-3 5-3 8v5.4l-3 3.3a1 1 0 00-.3.8v3.6a1.2 1.2 0 00.3.8c0 .2.2.2.4.3h8.3c0 1.7.6 3.2 1.6 4.3a5.5 5.5 0 008 0c1-1.1 1.6-2.6 1.6-4.2h7.9a1 1 0 00.8-.4 1.1 1.1 0 00.3-.8V24a1.1 1.1 0 00-.3-.8l-3-3.3zM15 32.2c-.9 0-1.8-.3-2.4-1-.6-.7-1-1.6-1-2.5h6.8c0 1-.4 1.8-1 2.5s-1.5 1-2.4 1z" fill="url(#paint0_linear)"/><path d="M26.3 13.3c2.4 0 4.4-2.2 4.4-4.8 0-2.7-2-4.8-4.4-4.8-2.5 0-4.6 2.1-4.6 4.8 0 2.6 2 4.8 4.6 4.8z" fill="url(#paint1_linear)"/><defs><linearGradient id="paint0_linear" x1=".4" y1=".1" x2="26.2" y2=".1" gradientUnits="userSpaceOnUse"><stop stop-color="#FE5C28"/><stop offset="1" stop-color="#FF8B36" stop-opacity=".9"/></linearGradient><linearGradient id="paint1_linear" x1="21.8" y1="3.7" x2="29.7" y2="3.7" gradientUnits="userSpaceOnUse"><stop stop-color="#FE5C28"/><stop offset="1" stop-color="#FF8B36" stop-opacity=".9"/></linearGradient></defs></svg>