<svg width="38" height="40" fill="none" xmlns="http://www.w3.org/2000/svg"><path d="M19 1.3C9.2 1.3 1.2 9.6 1.2 20c0 10.4 8 18.8 17.8 18.8S36.8 30.4 36.8 20 28.8 1.2 19 1.2zm-16.2 21L8 23.6v.8c0 2 .5 4.1 1.4 6l-2.6 1a17.6 17.6 0 01-3.9-9.1zM19 37.2c-4 0-7.8-1.6-10.7-4.2l2.2-.8c2 2.6 5 4.3 8.5 4.3 3.4 0 6.5-1.7 8.5-4.3l2.2.8A15.8 15.8 0 0119 37.2zM9.4 24.4c0-3.6 2.2-4.3 5.7-4.3H23c3.5 0 5.7.7 5.7 4.3 0 5.8-4.3 10.5-9.6 10.5s-9.6-4.7-9.6-10.5zm21.9 7l-2.6-1a12.8 12.8 0 001.4-6.8l5-1.3c-.4 3.4-1.7 6.5-3.8 9zm-1.7-9.9c-1.4-3-5-3-6.7-3h-2a49.6 49.6 0 01-5.8 0c-1.7 0-5.3 0-6.7 3L2.7 20c0-3.7 1-7.1 3-10 .2.4.6.7.7.5a8.3 8.3 0 017-2c.3.1.6-1.2.2-1.3-2.3-.4-4.7 0-6.8 1.3A16 16 0 0119 2.8c5 0 9.3 2.3 12.3 6a9.3 9.3 0 00-6.9-1.5c-.4.1-.1 1.4.2 1.4 2.5-.5 5 .2 7 2 .2 0 .5-.2.8-.6 1.9 3 3 6.4 3 9.9l-5.8 1.5z" fill="#DC1E1E"/><path d="M22 12.5c-.4.2-.8.2-.7.5 1.2 5.5 6 6.8 9.7 2.7.2-.2-.1-.4-.4-.8-3 1.4-6.8 0-8.6-2.4zM16 12.5A7.4 7.4 0 017.4 15c-.3.4-.6.6-.4.8 3.7 4.1 8.5 2.8 9.7-2.7 0-.3-.3-.3-.7-.5z" fill="#DC1E1E"/></svg>