<svg width="38" height="40" fill="none" xmlns="http://www.w3.org/2000/svg"><path d="M19 1.3C9.2 1.3 1.2 9.6 1.2 20c0 10.4 8 18.8 17.8 18.8S36.8 30.4 36.8 20 28.8 1.2 19 1.2zm11 30.2a15.3 15.3 0 01-11 4.7C10.7 36.2 3.8 29 3.8 20S10.6 3.8 19 3.8c8.4 0 15.3 7.3 15.3 16.2A16.4 16.4 0 0130 31.5z" fill="#15CE3D"/><path d="M11.3 15.6h3v3.2h-3v-3.2zM23.8 15.6h3v3.2h-3v-3.2zM25.1 24a6.5 6.5 0 01-2.3 3 6 6 0 01-3.5 1.1h-.6a6 6 0 01-3.5-1c-1-.8-1.8-1.9-2.3-3V24l-.1-.3h-2.6l.5 1.2a8.6 8.6 0 008 5.7h.6c1.7 0 3.4-.5 4.8-1.5a9 9 0 003.2-4.1l.5-1.3h-2.6v.3z" fill="#15CE3D"/></svg>